# Blender v2.92.0 OBJ File: 'Container1.blend'
# www.blender.org
mtllib Container1.mtl
o Cube_Cube.001
v -0.437570 0.206662 -0.595909
v 0.462781 0.206662 -0.595909
v -0.437570 0.206662 -0.296746
v 0.462781 0.206662 -0.296746
v 0.462781 0.206662 -0.296746
v -0.437570 0.206662 -0.296746
v -0.437570 0.206662 -0.595909
v 0.012605 0.206662 -0.595909
v -0.437570 0.206662 0.075200
v -0.405684 0.405686 0.043314
v -0.423762 0.220470 -0.595909
v -0.405684 0.405686 -0.564023
v 0.462781 0.206662 0.075200
v 0.430895 0.405686 0.043314
v 0.448973 0.220470 -0.595909
v 0.430895 0.405686 -0.564023
v -0.437570 0.405686 0.075200
v -0.423762 0.391878 -0.595909
v 0.448973 0.391878 -0.595909
v 0.462781 0.405686 0.075200
v -0.405684 0.405686 0.043314
v -0.405684 0.405686 -0.564023
v 0.430895 0.405686 -0.564023
v 0.430895 0.405686 0.043314
v -0.405684 0.231252 0.043314
v -0.405684 0.231252 -0.564023
v 0.430895 0.231252 -0.564023
v 0.430895 0.231252 0.043314
v -0.437570 0.405686 -0.595909
v -0.437570 0.206662 -0.595909
v 0.462781 0.206662 -0.595909
v 0.462781 0.405686 -0.595909
v -0.437570 0.405686 -0.595909
v -0.437570 0.206662 -0.595909
v 0.462781 0.206662 -0.595909
v 0.462781 0.405686 -0.595909
v -0.423762 0.391878 -0.587987
v -0.423762 0.220470 -0.587987
v 0.448973 0.220470 -0.587987
v 0.448973 0.391878 -0.587987
vt 0.875000 0.500000
vt 0.875000 0.562500
vt 0.875000 0.562500
vt 0.875000 0.500000
vt 0.375000 0.000000
vt 0.625000 0.000000
vt 0.625000 0.250000
vt 0.375000 0.250000
vt 0.392345 0.496166
vt 0.392345 0.253834
vt 0.392345 0.253834
vt 0.392345 0.496166
vt 0.375000 0.500000
vt 0.625000 0.500000
vt 0.625000 0.750000
vt 0.375000 0.750000
vt 0.625000 1.000000
vt 0.375000 1.000000
vt 0.125000 0.500000
vt 0.125000 0.750000
vt 0.866146 0.738122
vt 0.633854 0.738122
vt 0.633854 0.738122
vt 0.866146 0.738122
vt 0.866146 0.738122
vt 0.866146 0.511878
vt 0.875000 0.500000
vt 0.875000 0.750000
vt 0.633854 0.511878
vt 0.633854 0.738122
vt 0.866146 0.511878
vt 0.633854 0.511878
vt 0.633854 0.511878
vt 0.866146 0.511878
vt nan nan
vt nan nan
vt nan nan
vt nan nan
vt 0.375000 0.250000
vt 0.375000 0.500000
vt 0.625000 0.500000
vt 0.625000 0.250000
vt nan nan
vt nan nan
vt nan nan
vt nan nan
vt 0.607655 0.253834
vt 0.607655 0.496166
vt 0.607655 0.253834
vt 0.607655 0.496166
vn 0.0000 0.0000 1.0000
vn -1.0000 0.0000 0.0000
vn 0.0000 1.0000 0.0000
vn 1.0000 0.0000 0.0000
vn 0.0000 -1.0000 0.0000
vn 0.0000 0.0000 -1.0000
usemtl Material.002
s off
f 1/1/1 3/2/1 6/3/1 7/4/1
f 9/5/2 17/6/2 29/7/2 30/8/2
f 15/9/3 11/10/3 38/11/3 39/12/3
f 31/13/4 32/14/4 20/15/4 13/16/4
f 13/16/1 20/15/1 17/17/1 9/18/1
f 30/19/5 31/13/5 13/16/5 9/20/5
f 10/21/6 14/22/6 28/23/6 25/24/6
f 21/25/3 22/26/3 29/27/3 17/28/3
f 22/26/3 23/29/3 32/14/3 29/27/3
f 23/29/3 24/30/3 20/15/3 32/14/3
f 24/30/3 21/25/3 17/28/3 20/15/3
f 10/21/1 12/31/1 22/26/1 21/25/1
f 12/31/1 16/32/1 23/29/1 22/26/1
f 16/32/1 14/22/1 24/30/1 23/29/1
f 14/22/1 10/21/1 21/25/1 24/30/1
f 27/33/3 26/34/3 25/24/3 28/23/3
f 16/32/1 12/31/1 26/34/1 27/33/1
f 14/22/2 16/32/2 27/33/2 28/23/2
f 12/31/4 10/21/4 25/24/4 26/34/4
f 33/35/1 34/36/1 30/37/1 29/38/1
f 34/39/1 35/40/1 31/13/1 30/8/1
f 36/41/1 33/42/1 29/7/1 32/14/1
f 35/43/1 36/44/1 32/45/1 31/46/1
f 18/47/6 11/10/6 34/39/6 33/42/6
f 11/10/6 15/9/6 35/40/6 34/39/6
f 19/48/6 18/47/6 33/42/6 36/41/6
f 15/9/6 19/48/6 36/41/6 35/40/6
f 38/11/6 37/49/6 40/50/6 39/12/6
f 18/47/5 19/48/5 40/50/5 37/49/5
f 11/10/4 18/47/4 37/49/4 38/11/4
f 19/48/2 15/9/2 39/12/2 40/50/2
l 2 4
l 5 4
l 7 8
